<?xml version="1.0" encoding="UTF-8" standalone="no"?>
<!-- Created with Inkscape (http://www.inkscape.org/) -->

<svg
   xmlns:dc="http://purl.org/dc/elements/1.1/"
   xmlns:cc="http://creativecommons.org/ns#"
   xmlns:rdf="http://www.w3.org/1999/02/22-rdf-syntax-ns#"
   xmlns:svg="http://www.w3.org/2000/svg"
   xmlns="http://www.w3.org/2000/svg"
   xmlns:sodipodi="http://sodipodi.sourceforge.net/DTD/sodipodi-0.dtd"
   xmlns:inkscape="http://www.inkscape.org/namespaces/inkscape"
   id="svg2"
   version="1.1"
   inkscape:version="0.91 r13725"
   xml:space="preserve"
   width="48"
   height="48"
   viewBox="0 0 47.999999 48.000001"
   sodipodi:docname="flat_logo.svg"
   inkscape:export-filename="/home/outadoc/dev/mobile/android-studio/SplatCompanion/app/src/main/ic_launcher-web.png"
   inkscape:export-xdpi="960"
   inkscape:export-ydpi="960"><metadata
     id="metadata8"><rdf:RDF><cc:Work
         rdf:about=""><dc:format>image/svg+xml</dc:format><dc:type
           rdf:resource="http://purl.org/dc/dcmitype/StillImage" /><dc:title /><dc:creator><cc:Agent><dc:title>Arnaud Ma</dc:title></cc:Agent></dc:creator></cc:Work></rdf:RDF></metadata><defs
     id="defs6"><clipPath
       clipPathUnits="userSpaceOnUse"
       id="clipPath18"><path
         d="m 0,2904.262 2914.488,0 L 2914.488,0 0,0 0,2904.262 Z"
         id="path20"
         inkscape:connector-curvature="0" /></clipPath><clipPath
       clipPathUnits="userSpaceOnUse"
       id="clipPath30"><path
         d="m 252.073,1445.314 c 0,-670.208 543.31,-1213.518 1213.518,-1213.518 l 0,0 c 670.207,0 1213.517,543.31 1213.517,1213.518 l 0,0 c 0,670.207 -543.31,1213.517 -1213.517,1213.517 l 0,0 c -670.208,0 -1213.518,-543.31 -1213.518,-1213.517"
         id="path32"
         inkscape:connector-curvature="0" /></clipPath><clipPath
       clipPathUnits="userSpaceOnUse"
       id="clipPath38"><path
         d="m 615.023,2225.17 2784.647,0 0,-2662.938 -2784.647,0 0,2662.938 z"
         id="path40"
         inkscape:connector-curvature="0" /></clipPath><clipPath
       clipPathUnits="userSpaceOnUse"
       id="clipPath42"><path
         d="M 615.023,988.771 2041.211,-437.768 3399.667,920.124 2299.006,2020 l -396.896,0 0,-47.793 0,-26.535 -279.29,279.497 L 615.023,988.771 Z"
         id="path44"
         inkscape:connector-curvature="0" /></clipPath><clipPath
       clipPathUnits="userSpaceOnUse"
       id="clipPath46"><path
         d="m -32768,32767 65535,0 0,-65535 -65535,0 0,65535 z"
         id="path48"
         inkscape:connector-curvature="0" /></clipPath><linearGradient
       x1="0"
       y1="0"
       x2="1"
       y2="0"
       gradientUnits="userSpaceOnUse"
       gradientTransform="matrix(1188.8188,-1167.59,-1167.59,-1188.8188,1046.4271,1894.7318)"
       spreadMethod="pad"
       id="linearGradient50"><stop
         style="stop-opacity:1;stop-color:#ffffff"
         offset="0"
         id="stop52" /><stop
         style="stop-opacity:0;stop-color:#ffffff"
         offset="0.89796431"
         id="stop54" /><stop
         style="stop-opacity:0;stop-color:#ffffff"
         offset="1"
         id="stop56" /></linearGradient><mask
       maskUnits="userSpaceOnUse"
       x="0"
       y="0"
       width="1"
       height="1"
       id="mask58"><g
         id="g60"><g
           clip-path="url(#clipPath46)"
           id="g62"><g
             id="g64"><g
               id="g66"><path
                 d="m -32768,32767 65535,0 0,-65535 -65535,0 0,65535 z"
                 style="fill:url(#linearGradient50);stroke:none"
                 id="path68"
                 inkscape:connector-curvature="0" /></g></g></g></g></mask><linearGradient
       x1="0"
       y1="0"
       x2="1"
       y2="0"
       gradientUnits="userSpaceOnUse"
       gradientTransform="matrix(1188.8188,-1167.59,-1167.59,-1188.8188,1046.4271,1894.7318)"
       spreadMethod="pad"
       id="linearGradient70"><stop
         style="stop-opacity:1;stop-color:#0000ff"
         offset="0"
         id="stop72" /><stop
         style="stop-opacity:1;stop-color:#0000ff"
         offset="0.89796431"
         id="stop74" /><stop
         style="stop-opacity:1;stop-color:#0000ff"
         offset="1"
         id="stop76" /></linearGradient><filter
       height="1.048"
       y="-0.024"
       width="1.048"
       x="-0.024"
       id="filter4490"
       style="color-interpolation-filters:sRGB"
       inkscape:collect="always"><feGaussianBlur
         id="feGaussianBlur4492"
         stdDeviation="9.2327942"
         inkscape:collect="always" /></filter><filter
       style="color-interpolation-filters:sRGB;"
       inkscape:label="Drop Shadow"
       id="filter5599"><feFlood
         flood-opacity="0.498039"
         flood-color="rgb(0,0,0)"
         result="flood"
         id="feFlood5601" /><feComposite
         in="flood"
         in2="SourceGraphic"
         operator="in"
         result="composite1"
         id="feComposite5603" /><feGaussianBlur
         in="composite1"
         stdDeviation="7.1"
         result="blur"
         id="feGaussianBlur5605" /><feOffset
         dx="0"
         dy="-5.2"
         result="offset"
         id="feOffset5607" /><feComposite
         in="SourceGraphic"
         in2="offset"
         operator="over"
         result="composite2"
         id="feComposite5609" /></filter></defs><sodipodi:namedview
     pagecolor="#ffffff"
     bordercolor="#666666"
     borderopacity="1"
     objecttolerance="10"
     gridtolerance="10"
     guidetolerance="10"
     inkscape:pageopacity="0"
     inkscape:pageshadow="2"
     inkscape:window-width="1862"
     inkscape:window-height="1022"
     id="namedview4"
     showgrid="false"
     inkscape:zoom="11.313709"
     inkscape:cx="15.18408"
     inkscape:cy="24.512125"
     inkscape:window-x="58"
     inkscape:window-y="27"
     inkscape:window-maximized="1"
     inkscape:current-layer="g10"
     fit-margin-top="0"
     fit-margin-left="0"
     fit-margin-right="0"
     fit-margin-bottom="0" /><g
     inkscape:groupmode="layer"
     id="layer1"
     inkscape:label="shadow"
     style="display:none"><circle
       transform="matrix(0.04955985,0,0,0.04955985,-1.3746427,-1.5720563)"
       r="461.63971"
       cy="515.98334"
       cx="512"
       id="path4138-2"
       style="display:inline;fill:#cacaca;fill-opacity:1;filter:url(#filter4490)" /></g><g
     id="g10"
     inkscape:groupmode="layer"
     inkscape:label="splat+companion_logo"
     transform="matrix(1.25,0,0,-1.25,-315.09075,337.74405)"><g
       id="g14"
       transform="matrix(0.01508276,0,0,0.01508276,249.16745,229.19592)"
       style="filter:url(#filter5599)"><g
         id="g16"
         clip-path="url(#clipPath18)"><g
           id="g22"
           transform="translate(2679.1086,1445.3134)"><path
             d="m 0,0 c 0,-670.207 -543.311,-1213.518 -1213.518,-1213.518 -670.207,0 -1213.518,543.311 -1213.518,1213.518 0,670.207 543.311,1213.518 1213.518,1213.518 C -543.311,1213.518 0,670.207 0,0"
             style="fill:#0080ff;fill-opacity:1;fill-rule:nonzero;stroke:none"
             id="path24"
             inkscape:connector-curvature="0" /></g></g></g><g
       id="g26"
       transform="matrix(0.01508276,0,0,0.01508276,249.16745,229.19592)"><g
         id="g28"
         clip-path="url(#clipPath30)"><g
           id="g34"><g
             id="g36" /><g
             id="g78"><g
               clip-path="url(#clipPath38)"
               id="g80"
               style="opacity:0.44000202"><g
                 id="g82"><g
                   clip-path="url(#clipPath42)"
                   id="g84"><g
                     id="g86"><g
                       id="g88" /><g
                       mask="url(#mask58)"
                       id="g90"><g
                         id="g92"><path
                           d="M 615.023,988.771 2041.211,-437.768 3399.667,920.124 2299.006,2020 l -396.896,0 0,-47.793 0,-26.535 -279.29,279.497 L 615.023,988.771 Z"
                           style="fill:url(#linearGradient70);stroke:none"
                           id="path94"
                           inkscape:connector-curvature="0" /></g></g></g></g></g></g></g></g><g
           id="g96"
           transform="translate(1911.1458,1157.5708)"><path
             d="m 0,0 c 44.565,185.987 -31.059,412.857 -87.15,589.203 -29.835,93.798 -62.776,186.826 -101.335,277.414 -24.619,57.838 -58.867,182.617 -118.746,203.215 -65.496,22.531 -221.864,-45.934 -288.159,-65.397 -106.817,-31.359 -212.594,-68.106 -315.654,-110.22 -100.121,-40.913 -417.524,-151.933 -427.835,-290.172 -5.573,-74.725 96.183,-128.083 146.498,-164.876 65.361,-47.795 68.976,-58.52 62.408,-133.315 -9.171,-104.44 -22.137,-176.263 -95.571,-250.139 -39.963,-40.204 -155.066,-167.084 -71.021,-224.771 61.336,-42.101 156.127,99.878 225.277,97.435 -7.849,-49.523 -74.7,-178.967 -47.145,-226.413 53.297,-91.772 149.339,122.551 201.663,96.164 52.38,-26.415 -60.844,-232.09 46.083,-218.177 54.188,7.05 117.188,139.475 151.049,175.24 44.948,-54.366 -12.103,-214.503 59.776,-237.822 99.098,-32.151 128.33,140.391 135.469,199.311 10.898,89.951 83.544,204.728 168.059,251.808 C -260.763,21.728 -37.806,-157.79 0,0 15.027,62.714 -11.575,-48.312 0,0"
             style="fill:#ffffff;fill-opacity:1;fill-rule:nonzero;stroke:none"
             id="path98"
             inkscape:connector-curvature="0" /></g><g
           id="g100"
           transform="translate(2300.5608,2011.6666)"><path
             d="m 0,0 c -0.261,3.34 -0.609,6.666 -1.142,9.967 -1.042,6.466 -2.618,12.803 -4.775,18.995 -5.181,14.876 -13.184,28.019 -24.143,39.341 -10.519,10.868 -22.847,19.054 -36.867,24.702 -8.218,3.312 -16.732,5.547 -25.49,6.831 -4.592,0.673 -9.215,1.022 -13.86,1.137 -9.09,0.225 -18.083,-0.537 -26.956,-2.531 -7.964,-1.791 -15.647,-4.416 -23.034,-7.902 -11.725,-5.535 -22.212,-12.866 -31.621,-21.763 -7.827,-7.402 -14.641,-15.65 -20.559,-24.644 -0.71,-1.08 -1.391,-2.179 -2.087,-3.268 -0.245,-0.385 -0.489,-0.77 -0.742,-1.15 -0.318,-0.478 -0.687,-0.449 -1.042,0.081 -0.169,0.252 -0.329,0.511 -0.494,0.767 -0.902,1.408 -1.783,2.83 -2.711,4.222 -7.256,10.887 -15.789,20.645 -25.819,29.066 -11.963,10.043 -25.312,17.591 -40.248,22.26 -5.306,1.659 -10.714,2.9 -16.209,3.727 -4.59,0.691 -9.21,1.068 -13.857,1.145 -6.552,0.109 -13.079,-0.201 -19.563,-1.157 -5.949,-0.879 -11.803,-2.202 -17.541,-4.017 -12.527,-3.962 -24.006,-9.927 -34.303,-18.097 -16.016,-12.707 -27.388,-28.752 -34.29,-47.982 -2.448,-6.82 -4.146,-13.827 -5.233,-20.985 -0.457,-3.008 -0.792,-6.033 -0.981,-9.068 -0.256,-4.1 -0.371,-8.205 -0.252,-12.314 0.141,-4.863 0.206,-9.728 0.551,-14.588 0.351,-4.931 0.802,-9.847 1.419,-14.752 0.694,-5.511 1.638,-10.976 2.833,-16.398 1.999,-9.078 4.737,-17.926 8.322,-26.506 4.295,-10.284 9.719,-19.944 16.068,-29.096 5.95,-8.576 12.59,-16.594 19.642,-24.278 6.535,-7.118 13.389,-13.92 20.406,-20.561 10.275,-9.724 20.86,-19.106 31.527,-28.397 14.852,-12.935 29.751,-25.818 44.598,-38.759 14.39,-12.543 28.624,-25.26 42.666,-38.191 7.552,-6.954 15.022,-13.996 22.526,-21.002 1.591,-1.485 1.453,-1.458 3.056,0.066 15.605,14.822 31.501,29.329 47.568,43.647 12.547,11.182 25.232,22.208 37.932,33.215 14.481,12.551 29.018,25.039 43.244,37.881 7.903,7.135 15.679,14.406 23.19,21.956 7.567,7.607 14.825,15.494 21.513,23.892 7.125,8.944 13.486,18.391 18.746,28.559 5.758,11.129 10.025,22.809 12.896,35.002 1.186,5.035 2.149,10.109 2.913,15.226 0.741,4.966 1.275,9.953 1.695,14.955 0.279,3.335 0.437,6.676 0.56,10.02 0.097,2.66 0.214,5.318 0.322,7.977 C 0.347,-8.508 0.332,-4.254 0,0"
             style="fill:#f1aedd;fill-opacity:1;fill-rule:nonzero;stroke:none"
             id="path102"
             inkscape:connector-curvature="0" /></g><g
           id="g104"
           transform="translate(2386.8347,1655.6031)"><path
             d="m 0,0 c 0.449,1.579 0.855,3.167 1.172,4.774 0.622,3.149 0.976,6.329 1.039,9.542 0.152,7.717 -1.288,15.119 -4.396,22.187 -2.984,6.784 -7.255,12.645 -12.736,17.627 -3.212,2.921 -6.744,5.397 -10.55,7.478 -1.996,1.091 -4.06,2.038 -6.175,2.882 -4.139,1.651 -8.401,2.832 -12.818,3.426 -3.964,0.533 -7.941,0.634 -11.929,0.29 -6.33,-0.547 -12.397,-2.131 -18.235,-4.617 -4.857,-2.069 -9.392,-4.699 -13.643,-7.825 -0.51,-0.375 -1.01,-0.764 -1.515,-1.146 -0.178,-0.135 -0.356,-0.271 -0.537,-0.402 -0.227,-0.166 -0.392,-0.089 -0.464,0.214 -0.035,0.145 -0.065,0.291 -0.097,0.437 -0.175,0.8 -0.337,1.604 -0.527,2.402 -1.481,6.238 -3.74,12.174 -6.916,17.751 -3.787,6.651 -8.636,12.392 -14.705,17.08 -2.156,1.666 -4.429,3.157 -6.813,4.472 -1.992,1.099 -4.051,2.059 -6.173,2.885 -2.992,1.166 -6.044,2.135 -9.186,2.798 -2.883,0.61 -5.799,0.998 -8.744,1.141 -6.431,0.312 -12.721,-0.475 -18.844,-2.476 -9.522,-3.113 -17.479,-8.55 -23.925,-16.211 -2.285,-2.717 -4.259,-5.648 -5.977,-8.752 -0.722,-1.304 -1.391,-2.637 -1.994,-4 -0.815,-1.84 -1.567,-3.707 -2.212,-5.615 -0.763,-2.259 -1.562,-4.506 -2.23,-6.797 -0.678,-2.326 -1.308,-4.662 -1.86,-7.021 -0.619,-2.65 -1.115,-5.322 -1.489,-8.017 -0.627,-4.512 -0.875,-9.043 -0.689,-13.597 0.224,-5.456 1.071,-10.818 2.431,-16.104 1.274,-4.954 2.96,-9.769 4.893,-14.5 1.791,-4.384 3.782,-8.676 5.876,-12.922 3.066,-6.218 6.333,-12.331 9.653,-18.416 4.623,-8.472 9.276,-16.928 13.895,-25.402 4.477,-8.213 8.853,-16.48 13.104,-24.813 2.286,-4.48 4.52,-8.988 6.776,-13.485 0.478,-0.953 0.419,-0.917 1.415,-0.49 9.694,4.155 19.468,8.115 29.289,11.959 7.669,3.002 15.374,5.909 23.084,8.805 8.79,3.302 17.596,6.566 26.319,10.045 4.847,1.934 9.657,3.951 14.394,6.142 4.772,2.207 9.45,4.595 13.953,7.316 4.796,2.897 9.327,6.155 13.476,9.932 4.54,4.133 8.489,8.774 11.884,13.888 1.402,2.112 2.708,4.28 3.93,6.501 1.186,2.156 2.281,4.356 3.325,6.583 0.696,1.485 1.338,2.994 1.963,4.509 0.498,1.206 1.004,2.408 1.506,3.611 0.713,1.963 1.43,3.92 2.002,5.931"
             style="fill:#f1aedd;fill-opacity:1;fill-rule:nonzero;stroke:none"
             id="path106"
             inkscape:connector-curvature="0" /></g></g></g></g></svg>